<svg xmlns="http://www.w3.org/2000/svg" width="455" height="435" viewBox="0 0 455 435" font-family='"Microsoft YaHei","PingFang SC","Source Han Sans SC","Noto Sans CJK SC",sans-serif' text-rendering="geometricPrecision" shape-rendering="geometricPrecision">
<rect x="0" y="0" width="455" height="435" fill="#ffffff"/>
<line x1="231.0" y1="200.5" x2="231.0" y2="51.5" stroke="#2f3540" stroke-width="1.4" opacity="0.8" stroke-linecap="round"/>
<line x1="257.0" y1="218.0" x2="391.0" y2="218.0" stroke="#2f3540" stroke-width="1.4" opacity="0.8" stroke-linecap="round"/>
<line x1="231.0" y1="235.5" x2="231.0" y2="384.5" stroke="#2f3540" stroke-width="1.4" opacity="0.8" stroke-linecap="round"/>
<line x1="77.5" y1="218.0" x2="205.0" y2="218.0" stroke="#2f3540" stroke-width="1.4" opacity="0.8" stroke-linecap="round"/>
<rect x="221.5" y="115.0" width="19" height="22" fill="#ffffff"/>
<text x="231.0" y="130.0" font-size="11" font-weight="500" fill="#2f3540" text-anchor="middle">有</text>
<rect x="313.5" y="207.0" width="19" height="22" fill="#ffffff"/>
<text x="323.0" y="222.0" font-size="11" font-weight="500" fill="#2f3540" text-anchor="middle">有</text>
<rect x="221.5" y="299.0" width="19" height="22" fill="#ffffff"/>
<text x="231.0" y="314.0" font-size="11" font-weight="500" fill="#2f3540" text-anchor="middle">有</text>
<rect x="124.0" y="207.0" width="30" height="22" fill="#ffffff"/>
<text x="139.0" y="222.0" font-size="11" font-weight="500" fill="#2f3540" text-anchor="middle">研究</text>
<rect x="205" y="201" width="52" height="35" rx="8" fill="#ffffff" stroke="#2b5ea7" stroke-width="1.3"/>
<text x="231" y="223.9" font-size="15" font-weight="600" fill="#2f3540" text-anchor="middle">函数</text>
<rect x="201" y="17" width="61" height="35" rx="8" fill="#ffffff" stroke="#1f7a5c" stroke-width="1.3"/>
<text x="231.5" y="37.8" font-size="13" font-weight="400" fill="#2f3540" text-anchor="middle">定义域</text>
<rect x="391" y="201" width="48" height="35" rx="8" fill="#ffffff" stroke="#b06a1f" stroke-width="1.3"/>
<text x="415" y="221.8" font-size="13" font-weight="400" fill="#2f3540" text-anchor="middle">值域</text>
<rect x="194" y="385" width="74" height="35" rx="8" fill="#ffffff" stroke="#8a4b8a" stroke-width="1.3"/>
<text x="231" y="405.8" font-size="13" font-weight="400" fill="#2f3540" text-anchor="middle">对应法则</text>
<rect x="17" y="201" width="61" height="35" rx="8" fill="#ffffff" stroke="#3d6b8a" stroke-width="1.3"/>
<text x="47.5" y="221.8" font-size="13" font-weight="400" fill="#2f3540" text-anchor="middle">单调性</text>
</svg>